<?xml version="1.0" standalone="no"?>
<!DOCTYPE svg PUBLIC "-//W3C//DTD SVG 20010904//EN"
 "http://www.w3.org/TR/2001/REC-SVG-20010904/DTD/svg10.dtd">
<svg version="1.0" xmlns="http://www.w3.org/2000/svg"
 width="512.000000pt" height="512.000000pt" viewBox="0 0 512.000000 512.000000"
 preserveAspectRatio="xMidYMid meet">

<g transform="translate(0.000000,512.000000) scale(0.100000,-0.100000)"
fill="#000000" stroke="none">
<path d="M0 4305 c0 -448 2 -815 5 -815 3 0 25 10 50 23 48 24 64 46 42 59
-21 11 -30 73 -15 98 14 22 34 27 36 8 0 -7 3 -22 6 -33 2 -11 5 -23 5 -27 1
-5 11 -8 22 -8 16 0 20 -5 16 -19 -6 -24 13 -33 52 -25 16 4 32 1 35 -5 5 -7
-2 -11 -15 -11 -17 0 -20 -3 -12 -11 9 -9 20 -9 43 1 36 15 41 11 55 -38 8
-28 17 -38 35 -41 25 -3 25 -3 6 17 -17 20 -15 42 5 42 6 0 7 -9 4 -20 -7 -21
10 -28 18 -7 4 10 6 10 6 0 1 -9 17 -13 49 -12 26 1 39 3 30 6 -18 5 -25 23
-9 23 14 0 33 -28 27 -38 -3 -6 11 -6 35 0 29 8 51 7 82 -2 30 -9 42 -9 45 -1
5 14 42 15 42 1 0 -5 -5 -10 -11 -10 -6 0 -9 -10 -7 -22 2 -13 8 -23 15 -23 6
0 15 -3 19 -7 4 -5 18 -8 30 -8 39 0 35 -16 -7 -35 -22 -10 -42 -22 -45 -26
-6 -11 38 -7 54 4 12 9 23 3 69 -40 20 -18 16 -80 -7 -103 -11 -11 -24 -20
-30 -20 -5 0 -10 -7 -10 -16 0 -10 6 -14 14 -11 7 3 18 1 24 -5 12 -12 52 -1
52 14 0 6 6 6 15 -2 17 -14 20 -46 5 -55 -5 -3 -10 -14 -10 -23 1 -12 10 -5
31 20 18 23 36 35 45 31 10 -4 14 3 14 28 1 56 40 121 83 142 60 28 119 32
166 11 23 -10 41 -20 41 -24 0 -3 11 -17 24 -31 13 -14 27 -35 30 -47 4 -13
17 -22 34 -24 35 -4 50 -57 58 -204 6 -109 6 -110 -21 -142 -21 -25 -25 -36
-16 -46 12 -14 6 -41 -15 -66 -6 -8 -17 -32 -22 -52 -13 -47 -59 -108 -77
-102 -10 4 -12 0 -8 -15 3 -12 14 -21 24 -21 12 0 21 -10 25 -25 8 -31 -3 -46
-19 -25 -12 15 -115 70 -131 70 -4 0 -17 10 -28 23 -24 28 -21 18 19 -60 23
-42 50 -76 90 -108 40 -33 65 -63 81 -98 33 -74 41 -81 61 -56 10 13 22 18 34
14 25 -10 21 -20 -25 -59 -31 -27 -44 -33 -50 -24 -6 10 -8 10 -8 1 0 -7 -12
-16 -26 -19 -17 -4 -22 -9 -14 -14 13 -8 5 -50 -9 -50 -5 0 -8 -11 -8 -25 0
-20 2 -23 13 -14 8 6 11 16 8 21 -4 6 5 3 19 -6 24 -16 26 -16 41 6 9 12 16
31 16 42 0 20 0 20 15 0 17 -22 21 -149 5 -159 -12 -8 -13 -55 -1 -55 5 0 12
8 16 18 7 16 8 15 15 -3 12 -28 12 -57 0 -50 -6 3 -14 -5 -20 -19 -14 -37 -23
-149 -11 -142 5 3 15 -1 22 -10 7 -9 24 -14 42 -12 26 3 35 -4 64 -45 39 -55
39 -78 3 -87 -18 -5 -25 -13 -24 -30 1 -14 -5 -31 -13 -38 -18 -19 -7 -32 28
-32 23 0 29 -4 29 -21 0 -11 4 -18 9 -14 6 3 14 -2 20 -12 8 -16 10 -15 16 9
9 37 33 43 47 13 9 -19 8 -31 -2 -50 -11 -20 -11 -27 0 -40 7 -9 20 -13 28
-10 11 4 13 0 8 -19 -4 -18 0 -31 16 -46 18 -16 20 -24 12 -38 -6 -9 -19 -19
-29 -20 -9 -2 -15 0 -12 5 4 5 -1 10 -10 10 -9 0 -18 -9 -21 -19 -6 -25 -15
-23 -52 12 -37 35 -54 38 -45 10 4 -12 2 -27 -5 -35 -12 -14 0 -27 28 -31 20
-3 22 -7 27 -45 2 -18 10 -38 18 -44 30 -22 38 -54 33 -142 -3 -49 -10 -112
-16 -142 -5 -29 -10 -79 -10 -110 0 -31 -7 -80 -15 -110 -20 -78 -9 -125 46
-189 16 -18 29 -39 29 -47 0 -8 11 -22 24 -31 14 -8 28 -29 31 -45 5 -20 20
-38 46 -54 21 -14 63 -50 94 -80 30 -30 59 -55 65 -55 5 0 33 -18 62 -40 57
-43 81 -48 112 -25 27 20 67 20 60 0 -5 -13 115 -15 1049 -15 l1056 0 -13 33
c-11 25 -12 44 -3 92 14 73 16 270 3 270 -18 0 -27 -60 -30 -188 -2 -71 -8
-133 -13 -138 -7 -7 -22 -5 -47 5 -20 8 -36 12 -36 9 0 -11 -44 39 -57 65 -7
14 -13 35 -13 48 0 12 -4 26 -10 29 -5 3 -10 27 -10 53 0 38 -2 43 -12 30 -19
-24 -56 -6 -73 36 -8 19 -17 59 -21 88 -8 78 -10 81 -34 66 -28 -17 -47 8 -24
33 15 17 19 39 6 39 -5 0 -17 -9 -27 -20 -24 -26 -35 -25 -35 3 0 13 -4 27
-10 33 -5 5 -12 40 -15 78 -5 54 -4 67 7 64 7 -3 15 -13 17 -24 2 -10 8 -25
14 -32 8 -10 13 -7 23 15 8 15 18 35 23 43 20 32 41 89 41 111 0 40 -23 89
-42 89 -11 0 -18 7 -18 18 0 10 -11 29 -25 42 -27 26 -32 21 -37 -40 -2 -28
-8 -36 -27 -38 -14 -2 -35 -10 -47 -19 -21 -13 -25 -12 -44 7 -11 11 -18 25
-15 29 5 10 -17 153 -40 251 -8 36 -15 86 -15 112 0 41 4 50 32 72 l33 25 27
-31 c24 -28 30 -31 51 -21 34 16 71 -4 173 -91 43 -36 46 -77 7 -110 -29 -25
-24 -46 11 -46 13 0 29 -7 36 -16 23 -26 48 -36 69 -25 22 12 33 -4 24 -37 -2
-11 0 -23 6 -26 17 -11 13 -23 -10 -29 -16 -4 -20 -10 -14 -24 17 -41 18 -56
5 -48 -9 5 -11 4 -6 -4 4 -6 1 -23 -8 -36 -17 -26 -21 -55 -8 -55 5 0 16 -16
25 -35 9 -19 21 -35 27 -35 5 0 10 -9 10 -21 0 -12 16 -37 36 -57 34 -34 36
-39 30 -84 -5 -39 -4 -50 9 -54 8 -4 22 -1 30 6 12 10 18 10 31 -1 14 -11 18
-11 29 4 17 23 32 21 51 -8 10 -15 14 -35 10 -52 -3 -15 -2 -35 4 -43 7 -11
10 3 10 46 0 40 5 66 14 73 16 14 26 -4 26 -49 0 -15 7 -33 15 -40 8 -7 15
-29 15 -49 0 -20 12 -76 26 -125 22 -76 25 -95 15 -121 -6 -17 -11 -41 -11
-52 0 -12 -7 -28 -15 -37 -8 -8 -15 -24 -15 -35 0 -20 5 -21 135 -21 77 0 135
4 135 9 0 6 12 6 32 0 18 -5 99 -9 180 -9 136 0 147 1 141 17 -4 10 -10 20
-14 23 -15 10 -17 84 -3 123 21 60 18 110 -8 134 -29 27 -169 94 -181 86 -5
-3 -27 3 -49 13 -43 19 -58 12 -58 -31 0 -28 -28 -65 -49 -65 -10 0 -24 15
-34 35 -19 39 -23 105 -7 105 6 0 10 7 10 16 0 11 6 15 20 11 10 -3 25 2 31
10 8 9 21 12 36 8 13 -3 23 -1 23 5 0 5 -11 10 -24 10 -17 0 -26 7 -30 24 -3
14 -13 23 -23 22 -11 0 -27 17 -45 49 -28 50 -30 68 -13 137 5 18 1 41 -10 65
-12 26 -16 50 -12 83 7 57 -14 187 -43 267 -12 32 -28 78 -36 103 -8 25 -32
97 -54 160 -21 63 -40 117 -41 120 -1 3 -1 12 0 22 1 9 -3 19 -8 22 -6 4 -7
15 -1 30 6 17 4 31 -10 53 -10 18 -16 41 -13 56 4 20 1 26 -17 29 -32 4 -56
75 -34 99 14 16 14 18 -5 29 -13 7 -21 7 -21 1 0 -6 -7 -8 -15 -5 -8 4 -15 14
-15 23 0 9 -10 25 -21 35 -16 13 -18 21 -10 29 8 8 14 6 24 -7 18 -24 40 -16
97 34 25 21 53 46 62 54 12 10 17 29 16 63 -1 57 15 93 42 93 16 0 18 4 11 23
-6 14 -6 30 0 38 14 23 11 38 -16 65 -23 23 -26 52 -4 39 13 -9 11 9 -3 23 -9
9 -8 12 4 12 30 0 24 34 -9 63 -18 16 -33 35 -33 42 0 7 -7 19 -16 26 -12 10
-14 23 -10 50 8 50 0 67 -40 84 -20 8 -38 25 -45 42 -6 15 -15 35 -20 43 -5 8
-18 35 -29 60 -12 25 -41 64 -66 88 -34 31 -41 44 -30 48 11 4 14 20 10 75 -4
53 -1 78 14 111 10 24 17 49 14 56 -2 7 1 19 8 27 9 11 8 20 -8 40 -11 13 -23
42 -27 62 -3 21 -16 49 -28 61 -12 13 -22 33 -22 44 0 21 -49 46 -105 53 -13
1 -26 7 -28 13 -2 6 -16 24 -33 41 -28 30 -29 33 -14 54 16 23 20 57 6 57 -5
0 -16 -11 -25 -25 -9 -14 -21 -25 -26 -25 -17 0 -60 78 -60 108 0 26 -3 29
-27 24 -32 -6 -85 21 -98 50 -6 11 -14 20 -19 18 -5 -1 -13 5 -18 14 -13 23
11 54 49 61 18 3 35 10 38 15 10 17 -25 23 -43 8 -15 -13 -67 -38 -77 -38 -2
0 -11 12 -19 28 -8 15 -15 21 -16 13 0 -8 -3 -12 -6 -8 -3 3 -16 2 -28 -3 -13
-4 -29 -4 -39 1 -16 9 -87 -4 -112 -21 -5 -4 -29 -8 -51 -8 -23 -1 -52 -6 -64
-10 -14 -5 -36 -4 -57 3 -24 8 -49 9 -83 2 -50 -10 -120 -3 -120 12 0 5 -15
11 -32 14 -18 3 -67 14 -108 26 -49 14 -100 21 -146 20 -39 -1 -76 1 -82 5 -5
3 -23 -1 -38 -9 -40 -20 -52 -19 -56 8 -2 12 -7 22 -13 22 -5 0 -11 -10 -13
-22 -4 -26 -19 -29 -58 -11 -22 10 -28 10 -39 -5 -7 -9 -17 -17 -24 -17 -6 0
-19 -4 -29 -9 -60 -30 -150 -71 -170 -76 -12 -4 -22 -11 -22 -16 0 -16 -31 -9
-48 11 -10 11 -32 23 -51 27 -31 6 -34 4 -29 -15 7 -25 -16 -50 -27 -31 -5 7
-22 9 -48 5 -36 -6 -39 -5 -27 9 9 11 24 15 42 13 24 -4 28 -1 28 18 0 22 -45
54 -75 54 -19 0 -49 -37 -34 -42 7 -2 9 -10 5 -17 -6 -9 -11 -8 -21 6 -12 16
-17 17 -47 5 -28 -10 -35 -10 -45 3 -6 9 -19 16 -30 15 -10 -1 -45 0 -78 1
-151 7 -239 -4 -260 -34 -8 -12 -20 -17 -30 -13 -9 3 -28 0 -43 -8 -39 -19
-119 -30 -127 -16 -5 8 -13 6 -26 -6 -16 -15 -19 -15 -19 -2 0 9 6 21 13 27
20 16 14 55 -9 59 -20 3 -61 56 -69 88 -15 65 -31 93 -50 93 -99 1 -106 3
-103 30 2 14 12 30 23 36 43 22 46 25 35 46 -9 15 -7 19 5 19 9 0 13 5 10 10
-3 6 0 10 8 10 10 0 13 7 10 20 -5 18 0 20 41 20 35 0 46 4 46 16 0 9 7 14 18
12 11 -2 26 3 35 11 14 11 18 11 23 -3 8 -20 34 -21 34 -1 0 8 5 15 10 15 6 0
15 11 20 25 6 15 17 25 30 25 11 0 23 6 26 14 3 8 29 20 57 26 29 7 57 16 62
20 6 4 41 13 80 19 38 6 71 15 73 21 2 5 10 10 18 10 9 0 13 -4 10 -9 -3 -4 6
-13 20 -20 31 -14 34 -14 34 2 0 6 11 17 25 24 23 10 29 8 61 -22 20 -19 33
-39 29 -45 -4 -6 6 -15 24 -21 18 -6 31 -19 33 -31 5 -33 28 -34 29 -1 0 25 2
24 14 -12 13 -39 13 -40 15 -10 4 47 4 48 24 78 18 27 23 28 75 24 45 -4 59
-10 77 -32 14 -18 28 -26 38 -22 20 8 48 -2 40 -14 -3 -5 3 -25 14 -43 11 -18
22 -51 25 -72 9 -63 16 -74 48 -74 30 0 36 9 20 25 -9 10 -14 38 -12 62 0 6
11 13 24 15 18 2 23 10 25 44 3 36 6 41 23 37 11 -3 19 -1 17 5 -3 11 9 13 31
4 7 -3 22 0 32 6 29 18 49 14 72 -14 19 -24 72 -54 97 -54 6 0 8 10 4 24 -4
19 -1 26 15 31 28 8 26 21 -4 41 -30 20 -32 38 -5 61 11 10 20 23 20 30 0 7
11 13 25 13 14 0 35 10 46 21 19 19 34 22 110 23 52 1 89 5 89 11 0 6 5 2 11
-7 5 -10 15 -18 21 -18 7 0 6 5 -2 15 -9 11 -9 19 3 35 15 21 15 21 48 -9 18
-17 42 -30 53 -29 12 0 30 -3 40 -7 15 -7 17 -5 11 6 -7 12 -6 12 7 1 14 -11
18 -10 27 6 7 14 18 18 40 14 26 -3 31 0 37 22 4 16 13 26 24 26 11 0 22 5 25
10 8 14 43 -11 60 -42 6 -14 10 -40 8 -59 -2 -19 2 -44 9 -57 10 -19 9 -25 -1
-31 -8 -5 2 -11 28 -15 35 -5 41 -10 41 -31 0 -35 16 -31 23 5 6 27 9 29 32
20 15 -6 45 -10 69 -10 23 0 47 -5 53 -11 8 -8 17 -8 29 -1 13 7 26 6 44 -3
29 -15 42 -10 59 22 7 13 17 20 26 17 15 -6 50 22 50 41 1 19 45 55 69 55 19
0 26 -7 31 -29 3 -16 13 -35 21 -42 8 -6 14 -18 14 -25 0 -8 5 -14 10 -14 6 0
10 4 10 10 0 5 17 12 37 16 28 5 46 2 73 -14 26 -15 40 -18 53 -10 14 7 24 4
45 -18 l27 -27 9 37 c11 41 16 44 33 17 11 -17 10 -21 -6 -26 -14 -4 -18 -15
-17 -48 1 -59 8 -62 108 -41 14 3 29 0 33 -6 3 -6 1 -9 -6 -8 -6 2 -14 -3 -16
-9 -3 -8 5 -13 20 -13 14 0 27 5 29 11 2 5 12 11 23 13 12 2 20 11 20 22 0 13
8 20 28 22 16 2 27 -2 27 -8 0 -8 7 -9 18 -5 9 4 47 9 83 11 61 4 68 2 104
-26 32 -26 44 -29 74 -24 20 4 38 11 39 15 2 5 14 9 27 9 12 0 28 7 36 16 9
10 22 14 41 10 20 -4 31 0 40 13 17 23 60 30 81 13 13 -11 20 -11 39 -1 13 7
31 12 41 10 16 -2 17 22 17 393 l0 396 -2560 0 -2560 0 0 -815z m4135 268 c3
-21 10 -45 15 -55 12 -22 -24 -31 -89 -22 -46 6 -47 7 -43 38 7 45 40 73 89
75 18 1 23 -6 28 -36z m60 -162 c3 -5 2 -12 -3 -15 -5 -3 -9 1 -9 9 0 17 3 19
12 6z m-1901 -66 c3 -8 1 -15 -4 -15 -6 0 -10 7 -10 15 0 8 2 15 4 15 2 0 6
-7 10 -15z m-1686 -493 c3 -26 0 -32 -17 -32 -25 0 -34 15 -27 45 9 35 40 26
44 -13z m56 -53 c-19 -21 -39 -24 -50 -8 -11 18 37 50 54 37 10 -9 9 -14 -4
-29z m1688 -81 c-9 -9 -15 -9 -24 0 -9 9 -7 12 12 12 19 0 21 -3 12 -12z m-44
-38 c-9 -6 -14 -18 -11 -28 6 -25 -22 -52 -53 -52 -28 0 -28 -2 -9 43 10 25
20 35 30 31 8 -4 15 -1 15 5 0 6 10 11 23 11 19 -1 20 -2 5 -10z m136 1 c8
-12 -74 -51 -107 -51 -15 0 -27 3 -27 8 0 10 59 40 90 45 14 2 28 5 32 6 4 0
9 -3 12 -8z m-2387 -131 c-1 -11 -5 -20 -9 -20 -4 0 -8 9 -8 20 0 11 4 20 9
20 6 0 9 -9 8 -20z m1837 5 c11 -8 32 -15 46 -15 15 0 39 -11 54 -25 46 -42
27 -54 -30 -18 -12 8 -43 12 -76 10 -66 -2 -75 4 -60 38 13 28 37 32 66 10z
m363 0 c8 -24 -4 -30 -57 -30 -57 0 -71 10 -44 30 26 20 93 20 101 0z m387
-28 c19 -14 17 -15 -22 -15 -42 -1 -47 3 -36 32 6 16 19 13 58 -17z m-1983
-24 c13 -15 11 -16 -13 -9 -19 4 -28 2 -28 -5 0 -7 -2 -10 -5 -7 -9 9 6 38 20
38 7 0 19 -7 26 -17z m1094 -25 c8 25 43 30 51 7 4 -8 17 -15 30 -15 27 0 30
-6 10 -25 -10 -10 -16 -11 -25 -2 -8 8 -14 8 -23 -2 -11 -10 -5 -19 29 -47 39
-32 41 -36 32 -67 -11 -40 -11 -40 2 -32 5 4 14 18 19 31 6 14 17 27 25 29 48
15 49 19 10 25 -22 4 -30 8 -19 9 12 0 27 8 34 16 7 8 22 15 33 15 21 0 21 0
-1 20 -12 12 -22 24 -22 27 0 3 8 -1 18 -10 22 -20 68 -22 75 -4 3 7 9 2 15
-13 6 -14 11 -21 11 -17 1 4 18 -4 38 -18 50 -34 123 -33 123 1 0 26 30 27 56
4 34 -33 32 -66 -6 -73 -18 -4 -30 -13 -30 -22 0 -23 42 -18 84 10 33 22 66
25 66 5 0 -13 -24 -28 -49 -32 -13 -1 -30 -13 -38 -24 -13 -21 -12 -22 21 -26
19 -2 43 0 53 4 14 7 13 8 -5 4 -18 -3 -21 -2 -12 9 10 12 80 27 80 17 0 -3
-8 -11 -17 -18 -16 -12 -15 -13 15 -14 17 0 32 -4 32 -10 0 -5 -6 -7 -14 -4
-15 6 -16 -12 -2 -34 6 -10 2 -11 -18 -6 -38 9 -52 -6 -21 -22 33 -17 55 -18
55 -3 0 8 5 8 15 -1 8 -7 15 -17 15 -22 0 -13 -89 -8 -120 7 -35 17 -91 29
-67 15 9 -6 17 -15 17 -20 0 -6 -8 -10 -17 -10 -12 0 -8 -6 13 -19 53 -32 61
-62 10 -36 -16 8 -42 15 -60 14 -31 0 -30 0 12 -18 44 -17 62 -35 62 -60 0
-11 -13 -12 -66 -6 l-67 7 7 -25 c7 -29 -11 -47 -25 -26 -7 11 -9 11 -9 -3 0
-9 8 -22 18 -27 15 -9 15 -10 -6 -11 -12 0 -31 6 -42 12 -15 10 -22 10 -31 1
-10 -10 -6 -15 15 -23 44 -16 21 -31 -25 -15 -22 8 -53 12 -68 9 -28 -6 -29
-8 -19 -36 10 -27 8 -33 -12 -48 -21 -16 -23 -16 -47 7 -15 16 -22 31 -18 43
4 12 -1 19 -17 23 -31 8 -34 2 -14 -29 17 -24 17 -26 0 -22 -18 3 -72 81 -73
106 -1 6 6 12 14 12 8 0 15 -9 15 -19 0 -26 18 -37 26 -16 5 11 -4 28 -25 48
-31 32 -32 32 -37 10 -7 -27 -17 -29 -35 -6 -11 13 -11 17 -1 20 15 6 16 39 1
49 -6 3 -9 15 -6 25 4 15 2 17 -13 9 -33 -17 -64 -11 -103 21 -21 17 -44 29
-51 26 -7 -3 -31 12 -52 34 -29 29 -35 42 -26 51 8 8 15 8 28 -3 16 -13 17
-12 10 6 -22 53 -46 152 -46 186 0 12 11 32 25 45 l25 23 23 -22 c37 -38 55
-40 62 -6 6 27 25 42 25 19 0 -21 20 -9 21 13 1 21 1 21 9 -3 l8 -25 7 23z
m985 2 c24 -13 16 -44 -16 -65 -13 -8 -24 -24 -24 -35 0 -10 -4 -22 -10 -25
-5 -3 -10 -2 -10 3 0 5 -12 7 -27 4 l-28 -5 24 27 25 26 -22 16 c-26 18 -27
27 -6 48 17 18 66 21 94 6z m-145 -20 c0 -9 -11 -16 -27 -18 -27 -3 -38 14
-21 32 12 12 48 2 48 -14z m-83 -22 c14 -17 18 -34 16 -80 -2 -32 -7 -58 -12
-58 -6 0 -1 -7 10 -15 19 -14 19 -14 -3 -15 -12 0 -25 -4 -28 -10 -3 -5 1 -10
9 -10 9 0 16 -4 16 -10 0 -20 -31 -9 -42 15 -6 14 -16 25 -22 25 -6 0 -5 5 2
12 7 7 12 41 12 83 0 90 8 102 42 63z m-152 -68 c0 -5 -4 -10 -9 -10 -6 0 -13
5 -16 10 -3 6 1 10 9 10 9 0 16 -4 16 -10z m520 -44 c26 -29 14 -39 -30 -26
-36 10 -50 25 -50 52 0 14 4 15 29 7 16 -6 38 -21 51 -33z m-104 -16 c8 0 14
-5 14 -11 0 -6 -9 -9 -20 -6 -25 6 -26 -1 -2 -19 15 -12 9 -13 -43 -14 -77 0
-107 16 -48 26 23 3 44 13 47 21 4 9 13 13 22 9 9 -3 22 -6 30 -6z m199 -50
c-3 -5 -22 -10 -41 -10 -21 0 -33 4 -29 10 3 6 22 10 41 10 21 0 33 -4 29 -10z
m-190 -30 c-3 -6 4 -10 17 -10 18 0 20 -2 8 -10 -21 -13 -87 -13 -96 1 -3 6 0
15 7 20 19 12 72 11 64 -1z m-270 -30 c17 -7 14 -9 -13 -9 -20 -1 -31 3 -27 9
7 12 13 12 40 0z m395 0 c11 -7 6 -10 -22 -10 -20 0 -40 5 -43 10 -8 13 45 13
65 0z m80 -30 c13 -8 13 -10 -2 -10 -9 0 -20 5 -23 10 -8 13 5 13 25 0z m-205
-35 c30 -13 30 -13 4 -14 -14 -1 -34 6 -45 14 -25 19 -1 19 41 0z m-245 -5 c0
-5 -2 -10 -4 -10 -3 0 -8 5 -11 10 -3 6 -1 10 4 10 6 0 11 -4 11 -10z m533
-46 c14 -16 36 -36 50 -43 19 -10 25 -20 23 -40 -3 -23 -10 -28 -57 -38 -56
-13 -97 -10 -138 12 -16 8 -20 14 -12 19 7 4 17 4 24 -1 11 -7 64 -9 140 -5
43 3 32 20 -19 28 -32 4 -53 15 -73 36 -16 17 -51 37 -86 48 l-60 19 92 -3
c87 -2 93 -4 116 -32z m-163 -114 c0 -5 -7 -10 -15 -10 -8 0 -15 5 -15 10 0 6
7 10 15 10 8 0 15 -4 15 -10z m320 -17 c11 -9 -25 -21 -44 -14 -35 14 -31 32
6 24 18 -3 35 -8 38 -10z m-132 -51 c2 -7 -5 -12 -17 -12 -14 0 -19 5 -14 15
6 17 25 15 31 -3z m120 -8 c30 -8 28 -34 -3 -34 -14 0 -29 8 -35 20 -12 22 -4
25 38 14z m116 -113 c18 -19 17 -20 -10 -12 -15 4 -29 12 -32 19 -6 19 23 14
42 -7z m56 -41 c0 -5 -2 -10 -4 -10 -3 0 -8 5 -11 10 -3 6 -1 10 4 10 6 0 11
-4 11 -10z m-132 -118 c11 -7 9 -11 -8 -15 -12 -3 -19 -3 -16 0 3 4 -2 15 -11
26 -17 19 -17 20 2 9 11 -6 26 -15 33 -20z m-1818 -158 c0 -8 -4 -14 -10 -14
-5 0 -10 -9 -10 -20 0 -11 -4 -20 -10 -20 -5 0 -10 9 -10 20 0 11 5 20 10 20
6 0 10 9 10 21 0 11 5 17 10 14 6 -3 10 -13 10 -21z m2130 -49 c13 -14 21 -27
18 -30 -2 -3 -17 9 -33 25 -16 17 -24 30 -19 30 6 0 21 -11 34 -25z m205 -65
c3 -5 -1 -10 -9 -10 -9 0 -16 5 -16 10 0 6 4 10 9 10 6 0 13 -4 16 -10z m169
-75 c9 -14 23 -25 31 -25 15 0 35 -30 35 -52 -1 -9 -5 -7 -14 5 -7 9 -16 17
-20 17 -14 0 -76 55 -76 68 0 21 27 13 44 -13z m-2309 -95 c-3 -5 -13 -10 -21
-10 -8 0 -14 5 -14 10 0 6 9 10 21 10 11 0 17 -4 14 -10z m1635 -56 c0 -16 4
-23 11 -18 8 5 8 1 0 -14 -9 -17 -7 -21 12 -26 18 -5 19 -8 7 -15 -21 -12 -80
-1 -87 15 -7 19 15 44 33 37 16 -6 18 5 5 27 -11 16 -4 33 10 25 5 -4 9 -17 9
-31z m-1690 18 c0 -13 -32 -39 -57 -46 -31 -10 -29 8 3 33 27 22 54 28 54 13z
m1990 -37 c10 -12 10 -15 -4 -15 -9 0 -16 7 -16 15 0 8 2 15 4 15 2 0 9 -7 16
-15z m60 -26 c0 -5 -7 -9 -15 -9 -15 0 -20 12 -9 23 8 8 24 -1 24 -14z m468
-5 c-2 -12 9 -20 35 -28 42 -12 74 -53 64 -80 -8 -19 -30 -21 -49 -3 -7 7 -25
20 -40 30 -16 10 -28 24 -28 33 0 8 -7 22 -15 30 -22 22 -18 34 10 34 19 0 25
-5 23 -16z m-730 -76 c17 -17 15 -63 -4 -79 -13 -10 -17 -10 -25 2 -10 16 -12
50 -3 73 7 19 16 20 32 4z m472 -85 c0 -13 5 -33 10 -44 8 -14 7 -28 -6 -54
-27 -58 -48 -39 -31 28 6 24 6 42 0 48 -5 5 -7 23 -5 39 3 25 7 28 18 19 8 -6
14 -22 14 -36z m-1870 27 c0 -5 -4 -10 -10 -10 -5 0 -10 5 -10 10 0 6 5 10 10
10 6 0 10 -4 10 -10z m1439 -46 c6 -15 10 -27 9 -29 -2 -1 -18 -8 -36 -15 -21
-8 -40 -26 -49 -46 -9 -18 -31 -41 -50 -51 -29 -15 -34 -22 -29 -45 7 -36 -2
-58 -24 -58 -10 0 -20 -6 -23 -12 -9 -24 -41 7 -50 48 -10 49 -3 67 23 59 15
-5 21 0 25 22 4 15 14 53 23 83 15 49 20 55 47 58 18 2 33 -2 41 -13 14 -19
64 -11 64 11 0 23 16 16 29 -12z m-1999 -134 c0 -5 -4 -10 -10 -10 -5 0 -10 5
-10 10 0 6 5 10 10 10 6 0 10 -4 10 -10z m2095 -30 c38 0 56 -26 49 -69 -4
-26 -1 -46 9 -62 9 -13 19 -46 22 -74 5 -41 2 -60 -20 -110 -28 -62 -49 -83
-101 -101 -48 -17 -73 1 -113 81 -18 36 -19 45 -8 88 7 27 15 46 17 43 3 -2
21 8 39 24 23 18 35 37 37 56 1 16 5 37 9 46 4 11 0 20 -14 28 -43 22 -12 67
37 54 8 -2 24 -4 37 -4z m-1912 -229 c-4 -15 -12 -21 -27 -19 -23 3 -24 25 -4
66 l12 23 12 -24 c7 -13 10 -34 7 -46z m1854 -493 c-2 -13 -4 -3 -4 22 0 25 2
35 4 23 2 -13 2 -33 0 -45z m801 53 c11 -7 46 -131 39 -137 -1 -1 -18 5 -37
15 -31 14 -36 21 -41 66 -3 28 -4 53 -2 58 6 9 25 9 41 -2z"/>
<path d="M1670 3400 c-9 -6 -10 -10 -3 -10 6 0 15 5 18 10 8 12 4 12 -15 0z"/>
<path d="M1850 3268 c0 -7 5 -20 10 -28 8 -12 10 -11 10 7 0 12 -4 25 -10 28
-5 3 -10 0 -10 -7z"/>
<path d="M1630 3240 c0 -5 7 -10 15 -10 8 0 15 5 15 10 0 6 -7 10 -15 10 -8 0
-15 -4 -15 -10z"/>
<path d="M2365 3210 c3 -5 10 -10 16 -10 5 0 9 5 9 10 0 6 -7 10 -16 10 -8 0
-12 -4 -9 -10z"/>
<path d="M1640 3201 c0 -5 5 -13 10 -16 6 -3 10 -2 10 4 0 5 -4 13 -10 16 -5
3 -10 2 -10 -4z"/>
<path d="M2035 3040 c4 -6 11 -8 16 -5 14 9 11 15 -7 15 -8 0 -12 -5 -9 -10z"/>
<path d="M2096 3012 c-7 -11 15 -22 44 -22 27 0 74 19 66 27 -3 3 -16 1 -29
-5 -24 -13 -58 -12 -68 2 -4 4 -9 4 -13 -2z"/>
<path d="M2060 2991 c0 -6 5 -13 10 -16 6 -3 10 1 10 9 0 9 -4 16 -10 16 -5 0
-10 -4 -10 -9z"/>
<path d="M2010 2970 c0 -5 5 -10 10 -10 6 0 10 5 10 10 0 6 -4 10 -10 10 -5 0
-10 -4 -10 -10z"/>
<path d="M2040 2945 c0 -8 7 -15 15 -15 8 0 15 4 15 9 0 5 -7 11 -15 15 -9 3
-15 0 -15 -9z"/>
<path d="M1970 2908 c0 -11 12 -10 30 2 12 7 10 9 -8 7 -12 0 -22 -5 -22 -9z"/>
<path d="M1992 2860 c0 -14 2 -19 5 -12 2 6 2 18 0 25 -3 6 -5 1 -5 -13z"/>
<path d="M4255 960 c-3 -5 -1 -10 4 -10 6 0 11 5 11 10 0 6 -2 10 -4 10 -3 0
-8 -4 -11 -10z"/>
<path d="M3295 4500 c4 -6 11 -8 16 -5 14 9 11 15 -7 15 -8 0 -12 -5 -9 -10z"/>
<path d="M3220 4491 c0 -5 7 -12 16 -15 14 -5 15 -4 4 9 -14 17 -20 19 -20 6z"/>
<path d="M4441 4254 c0 -11 3 -14 6 -6 3 7 2 16 -1 19 -3 4 -6 -2 -5 -13z"/>
<path d="M2400 3965 c-9 -10 -10 -19 -3 -26 14 -14 45 0 41 19 -4 22 -23 25
-38 7z"/>
<path d="M3225 3910 c-3 -5 -1 -10 4 -10 6 0 11 5 11 10 0 6 -2 10 -4 10 -3 0
-8 -4 -11 -10z"/>
<path d="M2244 3855 c-22 -19 -25 -24 -11 -25 19 0 60 37 49 44 -5 3 -21 -6
-38 -19z"/>
<path d="M1283 3835 c-3 -9 -3 -18 0 -22 10 -10 37 6 37 22 0 20 -29 20 -37 0z"/>
<path d="M3752 3768 c3 -7 13 -15 22 -16 12 -3 17 1 14 10 -3 7 -13 15 -22 16
-12 3 -17 -1 -14 -10z"/>
<path d="M930 3085 c-1 -5 -2 -13 -1 -18 1 -4 -3 -25 -8 -47 -5 -24 -5 -42 0
-46 5 -3 9 1 10 8 1 7 5 2 9 -12 7 -23 8 -22 8 10 1 37 -14 122 -18 105z"/>
<path d="M944 2813 c-31 -43 -36 -53 -26 -53 6 0 19 18 31 40 24 47 23 51 -5
13z"/>
<path d="M1020 2632 c0 -6 -8 -13 -17 -15 -16 -4 -16 -5 -1 -6 18 -1 34 16 24
26 -3 4 -6 1 -6 -5z"/>
<path d="M1155 2048 c-3 -7 -6 -33 -7 -58 -3 -41 -1 -45 21 -48 13 -2 33 -15
45 -29 l22 -26 22 23 c12 13 22 29 22 36 0 6 7 14 15 18 23 9 18 29 -16 59
-25 21 -35 25 -45 16 -8 -6 -14 -20 -14 -30 0 -10 -4 -21 -10 -24 -6 -3 -10 4
-10 17 -1 23 -21 58 -34 58 -4 0 -9 -6 -11 -12z"/>
<path d="M1383 1503 c-7 -3 -13 -12 -13 -20 0 -10 6 -13 16 -9 9 3 20 6 25 6
13 0 11 17 -3 22 -7 3 -19 3 -25 1z"/>
<path d="M1395 1450 c4 -6 11 -8 16 -5 14 9 11 15 -7 15 -8 0 -12 -5 -9 -10z"/>
<path d="M1210 1390 c0 -5 4 -10 9 -10 6 0 13 5 16 10 3 6 -1 10 -9 10 -9 0
-16 -4 -16 -10z"/>
<path d="M960 1183 c0 -12 3 -13 13 -4 8 6 16 10 18 8 2 -1 3 0 1 2 -7 12 -32
7 -32 -6z"/>
<path d="M1560 955 c0 -8 4 -15 9 -15 5 0 11 7 15 15 3 9 0 15 -9 15 -8 0 -15
-7 -15 -15z"/>
<path d="M3790 590 c0 -5 5 -10 10 -10 6 0 10 5 10 10 0 6 -4 10 -10 10 -5 0
-10 -4 -10 -10z"/>
<path d="M4772 481 c2 -7 7 -12 11 -12 12 1 9 15 -3 20 -7 2 -11 -2 -8 -8z"/>
<path d="M4314 338 c3 -26 12 -62 20 -80 l14 -33 1 35 c0 19 -9 55 -20 80
l-20 45 5 -47z"/>
<path d="M0 30 c0 -5 5 -10 10 -10 6 0 10 5 10 10 0 6 -4 10 -10 10 -5 0 -10
-4 -10 -10z"/>
</g>
</svg>
